{"accessors":[{"bufferView":2,"byteOffset":0,"componentType":5126,"count":1326,"max":[1,1,1,1],"min":[0.006584956776350737,0.006584956776350737,0.006584956776350737,1],"name":"accessor_color_m0-PolyPaper21_-60962","type":"VEC4"},{"bufferView":0,"byteOffset":0,"componentType":5123,"count":1962,"max":[1325],"min":[0],"name":"accessor_indices_0_m0-PolyPaper21_-60962","type":"SCALAR"},{"bufferView":1,"byteOffset":15912,"componentType":5126,"count":1326,"max":[0.9659258,1,0.9659259],"min":[-0.965926,-1,-0.9659261],"name":"accessor_normal_m0-PolyPaper21_-60962","type":"VEC3"},{"bufferView":1,"byteOffset":0,"componentType":5126,"count":1326,"max":[-0.9822901,3.300068,-1.262403],"min":[-2.027513,1.370068,-2.307626],"name":"accessor_position_m0-PolyPaper21_-60962","type":"VEC3"}],"asset":{"copyright":"Unknown","generator":"glTF 1-to-2 Upgrader for Google Blocks","version":"2.0"},"bufferViews":[{"buffer":0,"byteLength":3924,"byteOffset":0,"name":"ushortBufferView","target":34963},{"buffer":0,"byteLength":31824,"byteOffset":3924,"byteStride":12,"name":"vec3BufferView","target":34962},{"buffer":0,"byteLength":21216,"byteOffset":35748,"byteStride":16,"name":"vec4BufferView","target":34962}],"buffers":[{"byteLength":56964,"name":"model","uri":"data:application/octet-stream;base64,"}],"materials":[{"alphaMode":"OPAQUE","doubleSided":false,"name":"BlocksPaper","pbrMetallicRoughness":{"baseColorFactor":[1,1,1,1],"metallicFactor":0,"roughnessFactor":0.6}},{"alphaMode":"BLEND","doubleSided":false,"name":"BlocksGlass","pbrMetallicRoughness":{"baseColorFactor":[0.2,0.2,1,0.3],"metallicFactor":1,"roughnessFactor":0.4}},{"alphaMode":"OPAQUE","doubleSided":true,"name":"BlocksGem","pbrMetallicRoughness":{"baseColorFactor":[1,0.4,1,1],"metallicFactor":0,"roughnessFactor":0.1}}],"meshes":[{"name":"mesh_m0-PolyPaper21_-60962","primitives":[{"attributes":{"COLOR_0":0,"NORMAL":2,"POSITION":3},"indices":1,"material":0,"mode":4}]}],"nodes":[{"mesh":0,"name":"node_MeshObject-1344454656-PolyPaper21"}],"scene":0,"scenes":[{"extras":{},"name":"defaultScene","nodes":[0]}]}